<mxfile host="app.diagrams.net" modified="2024-03-01T02:45:29.852Z" agent="Mozilla/5.0 (Macintosh; Intel Mac OS X 10_15_7) AppleWebKit/537.36 (KHTML, like Gecko) Chrome/121.0.0.0 Safari/537.36" etag="uY1UVOGqwt--N2mz6ziz" version="23.1.7" type="github">
  <diagram name="Page-1" id="98S-InChbkBYW1GwgXFS">
    <mxGraphModel dx="1426" dy="787" grid="1" gridSize="10" guides="1" tooltips="1" connect="1" arrows="1" fold="1" page="1" pageScale="1" pageWidth="850" pageHeight="1100" math="0" shadow="0">
      <root>
        <mxCell id="0" />
        <mxCell id="1" parent="0" />
        <mxCell id="xcRs6Vk-8HTqy84Q5jEp-23" value="VPC" style="sketch=0;outlineConnect=0;gradientColor=none;html=1;whiteSpace=wrap;fontSize=12;fontStyle=0;shape=mxgraph.aws4.group;grIcon=mxgraph.aws4.group_vpc;strokeColor=#879196;fillColor=none;verticalAlign=top;align=left;spacingLeft=30;fontColor=#879196;dashed=0;" parent="1" vertex="1">
          <mxGeometry x="500" y="940" width="280" height="380" as="geometry" />
        </mxCell>
        <mxCell id="xcRs6Vk-8HTqy84Q5jEp-1" value="AWS Cloud" style="sketch=0;outlineConnect=0;gradientColor=none;html=1;whiteSpace=wrap;fontSize=12;fontStyle=0;shape=mxgraph.aws4.group;grIcon=mxgraph.aws4.group_aws_cloud;strokeColor=#AAB7B8;fillColor=none;verticalAlign=top;align=left;spacingLeft=30;fontColor=#AAB7B8;dashed=0;" parent="1" vertex="1">
          <mxGeometry x="80" y="830" width="940" height="540" as="geometry" />
        </mxCell>
        <mxCell id="xcRs6Vk-8HTqy84Q5jEp-2" value="region-1" style="sketch=0;outlineConnect=0;gradientColor=none;html=1;whiteSpace=wrap;fontSize=12;fontStyle=0;shape=mxgraph.aws4.group;grIcon=mxgraph.aws4.group_region;strokeColor=#879196;fillColor=none;verticalAlign=top;align=left;spacingLeft=30;fontColor=#879196;dashed=1;" parent="1" vertex="1">
          <mxGeometry x="120" y="865" width="320" height="475" as="geometry" />
        </mxCell>
        <mxCell id="xcRs6Vk-8HTqy84Q5jEp-22" value="VPC" style="sketch=0;outlineConnect=0;gradientColor=none;html=1;whiteSpace=wrap;fontSize=12;fontStyle=0;shape=mxgraph.aws4.group;grIcon=mxgraph.aws4.group_vpc;strokeColor=#879196;fillColor=none;verticalAlign=top;align=left;spacingLeft=30;fontColor=#879196;dashed=0;" parent="1" vertex="1">
          <mxGeometry x="140" y="940" width="280" height="380" as="geometry" />
        </mxCell>
        <mxCell id="r2hI-yu4fjiWKP0jn3Z8-1" value="AWS Cloud" style="sketch=0;outlineConnect=0;gradientColor=none;html=1;whiteSpace=wrap;fontSize=12;fontStyle=0;shape=mxgraph.aws4.group;grIcon=mxgraph.aws4.group_aws_cloud;strokeColor=#AAB7B8;fillColor=none;verticalAlign=top;align=left;spacingLeft=30;fontColor=#AAB7B8;dashed=0;" parent="1" vertex="1">
          <mxGeometry x="80" y="140" width="940" height="590" as="geometry" />
        </mxCell>
        <mxCell id="r2hI-yu4fjiWKP0jn3Z8-2" value="ap-northeast-1" style="sketch=0;outlineConnect=0;gradientColor=none;html=1;whiteSpace=wrap;fontSize=12;fontStyle=0;shape=mxgraph.aws4.group;grIcon=mxgraph.aws4.group_region;strokeColor=#879196;fillColor=none;verticalAlign=top;align=left;spacingLeft=30;fontColor=#879196;dashed=1;" parent="1" vertex="1">
          <mxGeometry x="110" y="180" width="870" height="510" as="geometry" />
        </mxCell>
        <mxCell id="r2hI-yu4fjiWKP0jn3Z8-4" value="Availability zone" style="sketch=0;outlineConnect=0;gradientColor=none;html=1;whiteSpace=wrap;fontSize=12;fontStyle=0;shape=mxgraph.aws4.group;grIcon=mxgraph.aws4.group_availability_zone;strokeColor=#545B64;fillColor=none;verticalAlign=top;align=left;spacingLeft=30;fontColor=#545B64;dashed=1;" parent="1" vertex="1">
          <mxGeometry x="170" y="210" width="370" height="410" as="geometry" />
        </mxCell>
        <mxCell id="r2hI-yu4fjiWKP0jn3Z8-5" value="Availability zone" style="sketch=0;outlineConnect=0;gradientColor=none;html=1;whiteSpace=wrap;fontSize=12;fontStyle=0;shape=mxgraph.aws4.group;grIcon=mxgraph.aws4.group_availability_zone;strokeColor=#545B64;fillColor=none;verticalAlign=top;align=left;spacingLeft=30;fontColor=#545B64;dashed=1;" parent="1" vertex="1">
          <mxGeometry x="570" y="210" width="320" height="410" as="geometry" />
        </mxCell>
        <mxCell id="r2hI-yu4fjiWKP0jn3Z8-3" value="VPC" style="sketch=0;outlineConnect=0;gradientColor=none;html=1;whiteSpace=wrap;fontSize=12;fontStyle=0;shape=mxgraph.aws4.group;grIcon=mxgraph.aws4.group_vpc;strokeColor=#879196;fillColor=none;verticalAlign=top;align=left;spacingLeft=30;fontColor=#879196;dashed=0;" parent="1" vertex="1">
          <mxGeometry x="140" y="250" width="790" height="340" as="geometry" />
        </mxCell>
        <mxCell id="r2hI-yu4fjiWKP0jn3Z8-16" style="edgeStyle=orthogonalEdgeStyle;rounded=0;orthogonalLoop=1;jettySize=auto;html=1;curved=1;" parent="1" source="r2hI-yu4fjiWKP0jn3Z8-6" target="r2hI-yu4fjiWKP0jn3Z8-10" edge="1">
          <mxGeometry relative="1" as="geometry" />
        </mxCell>
        <mxCell id="r2hI-yu4fjiWKP0jn3Z8-6" value="Public Subnet" style="sketch=0;outlineConnect=0;gradientColor=none;html=1;whiteSpace=wrap;fontSize=12;fontStyle=0;shape=mxgraph.aws4.group;grIcon=mxgraph.aws4.group_subnet;strokeColor=#879196;fillColor=none;verticalAlign=top;align=left;spacingLeft=30;fontColor=#879196;dashed=0;" parent="1" vertex="1">
          <mxGeometry x="200" y="290" width="130" height="130" as="geometry" />
        </mxCell>
        <mxCell id="r2hI-yu4fjiWKP0jn3Z8-14" style="edgeStyle=orthogonalEdgeStyle;rounded=0;orthogonalLoop=1;jettySize=auto;html=1;curved=1;" parent="1" source="r2hI-yu4fjiWKP0jn3Z8-7" target="r2hI-yu4fjiWKP0jn3Z8-10" edge="1">
          <mxGeometry relative="1" as="geometry" />
        </mxCell>
        <mxCell id="r2hI-yu4fjiWKP0jn3Z8-7" value="Private Subnet" style="sketch=0;outlineConnect=0;gradientColor=none;html=1;whiteSpace=wrap;fontSize=12;fontStyle=0;shape=mxgraph.aws4.group;grIcon=mxgraph.aws4.group_subnet;strokeColor=#879196;fillColor=none;verticalAlign=top;align=left;spacingLeft=30;fontColor=#879196;dashed=0;" parent="1" vertex="1">
          <mxGeometry x="370" y="290" width="130" height="130" as="geometry" />
        </mxCell>
        <mxCell id="r2hI-yu4fjiWKP0jn3Z8-8" value="Internet&#xa;gateway" style="sketch=0;outlineConnect=0;fillColor=none;dashed=0;verticalLabelPosition=bottom;verticalAlign=top;align=center;html=1;fontSize=12;fontStyle=0;aspect=fixed;shape=mxgraph.aws4.resourceIcon;resIcon=mxgraph.aws4.internet_gateway;" parent="1" vertex="1">
          <mxGeometry x="150" y="440" width="60" height="60" as="geometry" />
        </mxCell>
        <mxCell id="r2hI-yu4fjiWKP0jn3Z8-12" style="edgeStyle=orthogonalEdgeStyle;rounded=0;orthogonalLoop=1;jettySize=auto;html=1;curved=1;" parent="1" source="r2hI-yu4fjiWKP0jn3Z8-9" target="r2hI-yu4fjiWKP0jn3Z8-8" edge="1">
          <mxGeometry relative="1" as="geometry" />
        </mxCell>
        <mxCell id="r2hI-yu4fjiWKP0jn3Z8-9" value="NAT gateway" style="sketch=0;outlineConnect=0;dashed=0;verticalLabelPosition=bottom;verticalAlign=top;align=center;html=1;fontSize=12;fontStyle=0;aspect=fixed;shape=mxgraph.aws4.resourceIcon;resIcon=mxgraph.aws4.nat_gateway;fillColor=none;" parent="1" vertex="1">
          <mxGeometry x="230" y="325" width="60" height="60" as="geometry" />
        </mxCell>
        <mxCell id="r2hI-yu4fjiWKP0jn3Z8-15" style="edgeStyle=orthogonalEdgeStyle;rounded=0;orthogonalLoop=1;jettySize=auto;html=1;curved=1;" parent="1" source="r2hI-yu4fjiWKP0jn3Z8-10" target="r2hI-yu4fjiWKP0jn3Z8-11" edge="1">
          <mxGeometry relative="1" as="geometry" />
        </mxCell>
        <mxCell id="r2hI-yu4fjiWKP0jn3Z8-10" value="Router" style="sketch=0;outlineConnect=0;fillColor=none;dashed=0;verticalLabelPosition=bottom;verticalAlign=top;align=center;html=1;fontSize=12;fontStyle=0;aspect=fixed;shape=mxgraph.aws4.resourceIcon;resIcon=mxgraph.aws4.router;" parent="1" vertex="1">
          <mxGeometry x="320" y="460" width="60" height="60" as="geometry" />
        </mxCell>
        <mxCell id="r2hI-yu4fjiWKP0jn3Z8-11" value="Route table" style="sketch=0;outlineConnect=0;fillColor=none;dashed=0;verticalLabelPosition=bottom;verticalAlign=top;align=center;html=1;fontSize=12;fontStyle=0;aspect=fixed;shape=mxgraph.aws4.resourceIcon;resIcon=mxgraph.aws4.route_table;" parent="1" vertex="1">
          <mxGeometry x="450" y="480" width="60" height="60" as="geometry" />
        </mxCell>
        <mxCell id="xcRs6Vk-8HTqy84Q5jEp-3" value="region-2" style="sketch=0;outlineConnect=0;gradientColor=none;html=1;whiteSpace=wrap;fontSize=12;fontStyle=0;shape=mxgraph.aws4.group;grIcon=mxgraph.aws4.group_region;strokeColor=#879196;fillColor=none;verticalAlign=top;align=left;spacingLeft=30;fontColor=#879196;dashed=1;" parent="1" vertex="1">
          <mxGeometry x="480" y="870" width="320" height="470" as="geometry" />
        </mxCell>
        <mxCell id="xcRs6Vk-8HTqy84Q5jEp-4" value="AZ-a" style="sketch=0;outlineConnect=0;gradientColor=none;html=1;whiteSpace=wrap;fontSize=12;fontStyle=0;shape=mxgraph.aws4.group;grIcon=mxgraph.aws4.group_availability_zone;strokeColor=#545B64;fillColor=none;verticalAlign=top;align=left;spacingLeft=30;fontColor=#545B64;dashed=1;" parent="1" vertex="1">
          <mxGeometry x="120" y="910" width="320" height="180" as="geometry" />
        </mxCell>
        <mxCell id="xcRs6Vk-8HTqy84Q5jEp-5" value="AZ-b" style="sketch=0;outlineConnect=0;gradientColor=none;html=1;whiteSpace=wrap;fontSize=12;fontStyle=0;shape=mxgraph.aws4.group;grIcon=mxgraph.aws4.group_availability_zone;strokeColor=#545B64;fillColor=none;verticalAlign=top;align=left;spacingLeft=30;fontColor=#545B64;dashed=1;" parent="1" vertex="1">
          <mxGeometry x="120" y="1120" width="320" height="180" as="geometry" />
        </mxCell>
        <mxCell id="xcRs6Vk-8HTqy84Q5jEp-6" value="AZ-a" style="sketch=0;outlineConnect=0;gradientColor=none;html=1;whiteSpace=wrap;fontSize=12;fontStyle=0;shape=mxgraph.aws4.group;grIcon=mxgraph.aws4.group_availability_zone;strokeColor=#545B64;fillColor=none;verticalAlign=top;align=left;spacingLeft=30;fontColor=#545B64;dashed=1;" parent="1" vertex="1">
          <mxGeometry x="480" y="910" width="320" height="180" as="geometry" />
        </mxCell>
        <mxCell id="xcRs6Vk-8HTqy84Q5jEp-7" value="AZ-b" style="sketch=0;outlineConnect=0;gradientColor=none;html=1;whiteSpace=wrap;fontSize=12;fontStyle=0;shape=mxgraph.aws4.group;grIcon=mxgraph.aws4.group_availability_zone;strokeColor=#545B64;fillColor=none;verticalAlign=top;align=left;spacingLeft=30;fontColor=#545B64;dashed=1;" parent="1" vertex="1">
          <mxGeometry x="480" y="1120" width="320" height="180" as="geometry" />
        </mxCell>
        <mxCell id="xcRs6Vk-8HTqy84Q5jEp-8" value="Public Subnet" style="sketch=0;outlineConnect=0;gradientColor=none;html=1;whiteSpace=wrap;fontSize=12;fontStyle=0;shape=mxgraph.aws4.group;grIcon=mxgraph.aws4.group_subnet;strokeColor=#879196;fillColor=none;verticalAlign=top;align=left;spacingLeft=30;fontColor=#879196;dashed=0;" parent="1" vertex="1">
          <mxGeometry x="160" y="970" width="110" height="100" as="geometry" />
        </mxCell>
        <mxCell id="xcRs6Vk-8HTqy84Q5jEp-9" value="Public Subnet" style="sketch=0;outlineConnect=0;gradientColor=none;html=1;whiteSpace=wrap;fontSize=12;fontStyle=0;shape=mxgraph.aws4.group;grIcon=mxgraph.aws4.group_subnet;strokeColor=#879196;fillColor=none;verticalAlign=top;align=left;spacingLeft=30;fontColor=#879196;dashed=0;" parent="1" vertex="1">
          <mxGeometry x="160" y="1170" width="110" height="100" as="geometry" />
        </mxCell>
        <mxCell id="xcRs6Vk-8HTqy84Q5jEp-10" value="Public Subnet" style="sketch=0;outlineConnect=0;gradientColor=none;html=1;whiteSpace=wrap;fontSize=12;fontStyle=0;shape=mxgraph.aws4.group;grIcon=mxgraph.aws4.group_subnet;strokeColor=#879196;fillColor=none;verticalAlign=top;align=left;spacingLeft=30;fontColor=#879196;dashed=0;" parent="1" vertex="1">
          <mxGeometry x="520" y="1170" width="110" height="100" as="geometry" />
        </mxCell>
        <mxCell id="xcRs6Vk-8HTqy84Q5jEp-11" value="Public Subnet" style="sketch=0;outlineConnect=0;gradientColor=none;html=1;whiteSpace=wrap;fontSize=12;fontStyle=0;shape=mxgraph.aws4.group;grIcon=mxgraph.aws4.group_subnet;strokeColor=#879196;fillColor=none;verticalAlign=top;align=left;spacingLeft=30;fontColor=#879196;dashed=0;" parent="1" vertex="1">
          <mxGeometry x="520" y="970" width="110" height="100" as="geometry" />
        </mxCell>
        <mxCell id="xcRs6Vk-8HTqy84Q5jEp-12" value="Private Subnet" style="sketch=0;outlineConnect=0;gradientColor=none;html=1;whiteSpace=wrap;fontSize=12;fontStyle=0;shape=mxgraph.aws4.group;grIcon=mxgraph.aws4.group_subnet;strokeColor=#879196;fillColor=none;verticalAlign=top;align=left;spacingLeft=30;fontColor=#879196;dashed=0;" parent="1" vertex="1">
          <mxGeometry x="290" y="970" width="110" height="100" as="geometry" />
        </mxCell>
        <mxCell id="xcRs6Vk-8HTqy84Q5jEp-13" value="Private Subnet" style="sketch=0;outlineConnect=0;gradientColor=none;html=1;whiteSpace=wrap;fontSize=12;fontStyle=0;shape=mxgraph.aws4.group;grIcon=mxgraph.aws4.group_subnet;strokeColor=#879196;fillColor=none;verticalAlign=top;align=left;spacingLeft=30;fontColor=#879196;dashed=0;" parent="1" vertex="1">
          <mxGeometry x="290" y="1170" width="110" height="100" as="geometry" />
        </mxCell>
        <mxCell id="xcRs6Vk-8HTqy84Q5jEp-14" value="Private Subnet" style="sketch=0;outlineConnect=0;gradientColor=none;html=1;whiteSpace=wrap;fontSize=12;fontStyle=0;shape=mxgraph.aws4.group;grIcon=mxgraph.aws4.group_subnet;strokeColor=#879196;fillColor=none;verticalAlign=top;align=left;spacingLeft=30;fontColor=#879196;dashed=0;" parent="1" vertex="1">
          <mxGeometry x="650" y="1170" width="110" height="100" as="geometry" />
        </mxCell>
        <mxCell id="xcRs6Vk-8HTqy84Q5jEp-15" value="Private Subnet" style="sketch=0;outlineConnect=0;gradientColor=none;html=1;whiteSpace=wrap;fontSize=12;fontStyle=0;shape=mxgraph.aws4.group;grIcon=mxgraph.aws4.group_subnet;strokeColor=#879196;fillColor=none;verticalAlign=top;align=left;spacingLeft=30;fontColor=#879196;dashed=0;" parent="1" vertex="1">
          <mxGeometry x="650" y="970" width="110" height="100" as="geometry" />
        </mxCell>
        <mxCell id="xcRs6Vk-8HTqy84Q5jEp-16" value="NAT gateway" style="sketch=0;outlineConnect=0;dashed=0;verticalLabelPosition=bottom;verticalAlign=top;align=center;html=1;fontSize=12;fontStyle=0;aspect=fixed;shape=mxgraph.aws4.resourceIcon;resIcon=mxgraph.aws4.nat_gateway;fillColor=none;" parent="1" vertex="1">
          <mxGeometry x="195" y="1000" width="40" height="40" as="geometry" />
        </mxCell>
        <mxCell id="xcRs6Vk-8HTqy84Q5jEp-17" value="NAT gateway" style="sketch=0;outlineConnect=0;dashed=0;verticalLabelPosition=bottom;verticalAlign=top;align=center;html=1;fontSize=12;fontStyle=0;aspect=fixed;shape=mxgraph.aws4.resourceIcon;resIcon=mxgraph.aws4.nat_gateway;fillColor=none;" parent="1" vertex="1">
          <mxGeometry x="195" y="1200" width="40" height="40" as="geometry" />
        </mxCell>
        <mxCell id="xcRs6Vk-8HTqy84Q5jEp-18" value="NAT gateway" style="sketch=0;outlineConnect=0;dashed=0;verticalLabelPosition=bottom;verticalAlign=top;align=center;html=1;fontSize=12;fontStyle=0;aspect=fixed;shape=mxgraph.aws4.resourceIcon;resIcon=mxgraph.aws4.nat_gateway;fillColor=none;" parent="1" vertex="1">
          <mxGeometry x="555" y="1200" width="40" height="40" as="geometry" />
        </mxCell>
        <mxCell id="xcRs6Vk-8HTqy84Q5jEp-19" value="NAT gateway" style="sketch=0;outlineConnect=0;dashed=0;verticalLabelPosition=bottom;verticalAlign=top;align=center;html=1;fontSize=12;fontStyle=0;aspect=fixed;shape=mxgraph.aws4.resourceIcon;resIcon=mxgraph.aws4.nat_gateway;fillColor=none;" parent="1" vertex="1">
          <mxGeometry x="555" y="1000" width="40" height="40" as="geometry" />
        </mxCell>
        <mxCell id="xcRs6Vk-8HTqy84Q5jEp-21" value="&lt;h1&gt;&lt;span style=&quot;background-color: initial;&quot;&gt;CDK default network setting&lt;/span&gt;&lt;br&gt;&lt;/h1&gt;&lt;div&gt;&lt;span style=&quot;background-color: initial;&quot;&gt;cdk default network setting will setup NAT gateway in every AZ&lt;/span&gt;&lt;/div&gt;" style="text;html=1;spacing=5;spacingTop=-20;whiteSpace=wrap;overflow=hidden;rounded=0;" parent="1" vertex="1">
          <mxGeometry x="810" y="880" width="190" height="120" as="geometry" />
        </mxCell>
        <mxCell id="xcRs6Vk-8HTqy84Q5jEp-24" value="VPC" style="sketch=0;outlineConnect=0;gradientColor=none;html=1;whiteSpace=wrap;fontSize=12;fontStyle=0;shape=mxgraph.aws4.group;grIcon=mxgraph.aws4.group_vpc;strokeColor=#879196;fillColor=none;verticalAlign=top;align=left;spacingLeft=30;fontColor=#879196;dashed=0;" parent="1" vertex="1">
          <mxGeometry x="500" y="1580" width="280" height="380" as="geometry" />
        </mxCell>
        <mxCell id="xcRs6Vk-8HTqy84Q5jEp-25" value="AWS Cloud" style="sketch=0;outlineConnect=0;gradientColor=none;html=1;whiteSpace=wrap;fontSize=12;fontStyle=0;shape=mxgraph.aws4.group;grIcon=mxgraph.aws4.group_aws_cloud;strokeColor=#AAB7B8;fillColor=none;verticalAlign=top;align=left;spacingLeft=30;fontColor=#AAB7B8;dashed=0;" parent="1" vertex="1">
          <mxGeometry x="80" y="1470" width="940" height="540" as="geometry" />
        </mxCell>
        <mxCell id="xcRs6Vk-8HTqy84Q5jEp-26" value="region-1" style="sketch=0;outlineConnect=0;gradientColor=none;html=1;whiteSpace=wrap;fontSize=12;fontStyle=0;shape=mxgraph.aws4.group;grIcon=mxgraph.aws4.group_region;strokeColor=#879196;fillColor=none;verticalAlign=top;align=left;spacingLeft=30;fontColor=#879196;dashed=1;" parent="1" vertex="1">
          <mxGeometry x="120" y="1505" width="320" height="475" as="geometry" />
        </mxCell>
        <mxCell id="xcRs6Vk-8HTqy84Q5jEp-27" value="VPC" style="sketch=0;outlineConnect=0;gradientColor=none;html=1;whiteSpace=wrap;fontSize=12;fontStyle=0;shape=mxgraph.aws4.group;grIcon=mxgraph.aws4.group_vpc;strokeColor=#879196;fillColor=none;verticalAlign=top;align=left;spacingLeft=30;fontColor=#879196;dashed=0;" parent="1" vertex="1">
          <mxGeometry x="140" y="1580" width="280" height="380" as="geometry" />
        </mxCell>
        <mxCell id="xcRs6Vk-8HTqy84Q5jEp-28" value="region-2" style="sketch=0;outlineConnect=0;gradientColor=none;html=1;whiteSpace=wrap;fontSize=12;fontStyle=0;shape=mxgraph.aws4.group;grIcon=mxgraph.aws4.group_region;strokeColor=#879196;fillColor=none;verticalAlign=top;align=left;spacingLeft=30;fontColor=#879196;dashed=1;" parent="1" vertex="1">
          <mxGeometry x="480" y="1510" width="320" height="470" as="geometry" />
        </mxCell>
        <mxCell id="xcRs6Vk-8HTqy84Q5jEp-29" value="AZ-a" style="sketch=0;outlineConnect=0;gradientColor=none;html=1;whiteSpace=wrap;fontSize=12;fontStyle=0;shape=mxgraph.aws4.group;grIcon=mxgraph.aws4.group_availability_zone;strokeColor=#545B64;fillColor=none;verticalAlign=top;align=left;spacingLeft=30;fontColor=#545B64;dashed=1;" parent="1" vertex="1">
          <mxGeometry x="120" y="1550" width="320" height="180" as="geometry" />
        </mxCell>
        <mxCell id="xcRs6Vk-8HTqy84Q5jEp-30" value="AZ-b" style="sketch=0;outlineConnect=0;gradientColor=none;html=1;whiteSpace=wrap;fontSize=12;fontStyle=0;shape=mxgraph.aws4.group;grIcon=mxgraph.aws4.group_availability_zone;strokeColor=#545B64;fillColor=none;verticalAlign=top;align=left;spacingLeft=30;fontColor=#545B64;dashed=1;" parent="1" vertex="1">
          <mxGeometry x="120" y="1760" width="320" height="180" as="geometry" />
        </mxCell>
        <mxCell id="xcRs6Vk-8HTqy84Q5jEp-31" value="AZ-a" style="sketch=0;outlineConnect=0;gradientColor=none;html=1;whiteSpace=wrap;fontSize=12;fontStyle=0;shape=mxgraph.aws4.group;grIcon=mxgraph.aws4.group_availability_zone;strokeColor=#545B64;fillColor=none;verticalAlign=top;align=left;spacingLeft=30;fontColor=#545B64;dashed=1;" parent="1" vertex="1">
          <mxGeometry x="480" y="1550" width="320" height="180" as="geometry" />
        </mxCell>
        <mxCell id="xcRs6Vk-8HTqy84Q5jEp-32" value="AZ-b" style="sketch=0;outlineConnect=0;gradientColor=none;html=1;whiteSpace=wrap;fontSize=12;fontStyle=0;shape=mxgraph.aws4.group;grIcon=mxgraph.aws4.group_availability_zone;strokeColor=#545B64;fillColor=none;verticalAlign=top;align=left;spacingLeft=30;fontColor=#545B64;dashed=1;" parent="1" vertex="1">
          <mxGeometry x="480" y="1760" width="320" height="180" as="geometry" />
        </mxCell>
        <mxCell id="xcRs6Vk-8HTqy84Q5jEp-33" value="Public Subnet" style="sketch=0;outlineConnect=0;gradientColor=none;html=1;whiteSpace=wrap;fontSize=12;fontStyle=0;shape=mxgraph.aws4.group;grIcon=mxgraph.aws4.group_subnet;strokeColor=#879196;fillColor=none;verticalAlign=top;align=left;spacingLeft=30;fontColor=#879196;dashed=0;" parent="1" vertex="1">
          <mxGeometry x="160" y="1610" width="110" height="100" as="geometry" />
        </mxCell>
        <mxCell id="xcRs6Vk-8HTqy84Q5jEp-34" value="Public Subnet" style="sketch=0;outlineConnect=0;gradientColor=none;html=1;whiteSpace=wrap;fontSize=12;fontStyle=0;shape=mxgraph.aws4.group;grIcon=mxgraph.aws4.group_subnet;strokeColor=#879196;fillColor=none;verticalAlign=top;align=left;spacingLeft=30;fontColor=#879196;dashed=0;" parent="1" vertex="1">
          <mxGeometry x="160" y="1810" width="110" height="100" as="geometry" />
        </mxCell>
        <mxCell id="xcRs6Vk-8HTqy84Q5jEp-35" value="Public Subnet" style="sketch=0;outlineConnect=0;gradientColor=none;html=1;whiteSpace=wrap;fontSize=12;fontStyle=0;shape=mxgraph.aws4.group;grIcon=mxgraph.aws4.group_subnet;strokeColor=#879196;fillColor=none;verticalAlign=top;align=left;spacingLeft=30;fontColor=#879196;dashed=0;" parent="1" vertex="1">
          <mxGeometry x="520" y="1810" width="110" height="100" as="geometry" />
        </mxCell>
        <mxCell id="xcRs6Vk-8HTqy84Q5jEp-36" value="Public Subnet" style="sketch=0;outlineConnect=0;gradientColor=none;html=1;whiteSpace=wrap;fontSize=12;fontStyle=0;shape=mxgraph.aws4.group;grIcon=mxgraph.aws4.group_subnet;strokeColor=#879196;fillColor=none;verticalAlign=top;align=left;spacingLeft=30;fontColor=#879196;dashed=0;" parent="1" vertex="1">
          <mxGeometry x="520" y="1610" width="110" height="100" as="geometry" />
        </mxCell>
        <mxCell id="xcRs6Vk-8HTqy84Q5jEp-37" value="Private Subnet" style="sketch=0;outlineConnect=0;gradientColor=none;html=1;whiteSpace=wrap;fontSize=12;fontStyle=0;shape=mxgraph.aws4.group;grIcon=mxgraph.aws4.group_subnet;strokeColor=#879196;fillColor=none;verticalAlign=top;align=left;spacingLeft=30;fontColor=#879196;dashed=0;" parent="1" vertex="1">
          <mxGeometry x="290" y="1610" width="110" height="100" as="geometry" />
        </mxCell>
        <mxCell id="xcRs6Vk-8HTqy84Q5jEp-38" value="Private Subnet" style="sketch=0;outlineConnect=0;gradientColor=none;html=1;whiteSpace=wrap;fontSize=12;fontStyle=0;shape=mxgraph.aws4.group;grIcon=mxgraph.aws4.group_subnet;strokeColor=#879196;fillColor=none;verticalAlign=top;align=left;spacingLeft=30;fontColor=#879196;dashed=0;" parent="1" vertex="1">
          <mxGeometry x="290" y="1810" width="110" height="100" as="geometry" />
        </mxCell>
        <mxCell id="xcRs6Vk-8HTqy84Q5jEp-39" value="Private Subnet" style="sketch=0;outlineConnect=0;gradientColor=none;html=1;whiteSpace=wrap;fontSize=12;fontStyle=0;shape=mxgraph.aws4.group;grIcon=mxgraph.aws4.group_subnet;strokeColor=#879196;fillColor=none;verticalAlign=top;align=left;spacingLeft=30;fontColor=#879196;dashed=0;" parent="1" vertex="1">
          <mxGeometry x="650" y="1810" width="110" height="100" as="geometry" />
        </mxCell>
        <mxCell id="xcRs6Vk-8HTqy84Q5jEp-40" value="Private Subnet" style="sketch=0;outlineConnect=0;gradientColor=none;html=1;whiteSpace=wrap;fontSize=12;fontStyle=0;shape=mxgraph.aws4.group;grIcon=mxgraph.aws4.group_subnet;strokeColor=#879196;fillColor=none;verticalAlign=top;align=left;spacingLeft=30;fontColor=#879196;dashed=0;" parent="1" vertex="1">
          <mxGeometry x="650" y="1610" width="110" height="100" as="geometry" />
        </mxCell>
        <mxCell id="xcRs6Vk-8HTqy84Q5jEp-41" value="NAT gateway" style="sketch=0;outlineConnect=0;dashed=0;verticalLabelPosition=bottom;verticalAlign=top;align=center;html=1;fontSize=12;fontStyle=0;aspect=fixed;shape=mxgraph.aws4.resourceIcon;resIcon=mxgraph.aws4.nat_gateway;fillColor=none;" parent="1" vertex="1">
          <mxGeometry x="195" y="1640" width="40" height="40" as="geometry" />
        </mxCell>
        <mxCell id="xcRs6Vk-8HTqy84Q5jEp-44" value="NAT gateway" style="sketch=0;outlineConnect=0;dashed=0;verticalLabelPosition=bottom;verticalAlign=top;align=center;html=1;fontSize=12;fontStyle=0;aspect=fixed;shape=mxgraph.aws4.resourceIcon;resIcon=mxgraph.aws4.nat_gateway;fillColor=none;" parent="1" vertex="1">
          <mxGeometry x="555" y="1640" width="40" height="40" as="geometry" />
        </mxCell>
        <mxCell id="xcRs6Vk-8HTqy84Q5jEp-45" value="&lt;h1&gt;&lt;span style=&quot;background-color: initial;&quot;&gt;CDK default network setting&lt;/span&gt;&lt;br&gt;&lt;/h1&gt;&lt;div&gt;&lt;span style=&quot;background-color: initial;&quot;&gt;cdk default network setting will setup NAT gateway in every AZ&lt;/span&gt;&lt;/div&gt;" style="text;html=1;spacing=5;spacingTop=-20;whiteSpace=wrap;overflow=hidden;rounded=0;" parent="1" vertex="1">
          <mxGeometry x="810" y="1520" width="190" height="120" as="geometry" />
        </mxCell>
      </root>
    </mxGraphModel>
  </diagram>
</mxfile>
